custom-analysis
version=1
nRows=4
nColumns=98
inDegrees=no

This file contains tibia displacement and acting force.

Units are S.I. units (seconds, meters, Newtons, ...)
Angles are in degrees.

endheader
time	APT	SIT	knee_angle	aACL_R_force	pACL_R_force	aPCL_R_force	pPCL_R_force	aMCL_R_force	mMCL_R_force	pMCL_R_force	aLCL_R_force	mLCL_R_force	pLCL_R_force	aPCL_L_force	pPCL_L_force	aMCL_L_force	aLCL_L_force	aACL_R_length	pACL_R_length	aPCL_R_length	pPCL_R_length	aMCL_R_length	mMCL_R_length	pMCL_R_length	aLCL_R_length	mLCL_R_length	pLCL_R_length	aPCL_L_length	pPCL_L_length	aMCL_L_length	aLCL_L_length	aACL_R_strain	pACL_R_strain	aPCL_R_strain	pPCL_R_strain	aMCL_R_strain	mMCL_R_strain	pMCL_R_strain	aLCL_R_strain	mLCL_R_strain	pLCL_R_strain	aPCL_L_strain	pPCL_L_strain	aMCL_L_strain	aLCL_L_strain	femur_lat_meniscii_r.femur_lat_r.force.X	femur_lat_meniscii_r.femur_lat_r.force.Y	femur_lat_meniscii_r.femur_lat_r.force.Z	femur_lat_meniscii_r.femur_lat_r.torque.X	femur_lat_meniscii_r.femur_lat_r.torque.Y	femur_lat_meniscii_r.femur_lat_r.torque.Z	femur_lat_meniscii_r.meniscus_lat_r.force.X	femur_lat_meniscii_r.meniscus_lat_r.force.Y	femur_lat_meniscii_r.meniscus_lat_r.force.Z	femur_lat_meniscii_r.meniscus_lat_r.torque.X	femur_lat_meniscii_r.meniscus_lat_r.torque.Y	femur_lat_meniscii_r.meniscus_lat_r.torque.Z	femur_med_meniscii_r.femur_med_r.force.X	femur_med_meniscii_r.femur_med_r.force.Y	femur_med_meniscii_r.femur_med_r.force.Z	femur_med_meniscii_r.femur_med_r.torque.X	femur_med_meniscii_r.femur_med_r.torque.Y	femur_med_meniscii_r.femur_med_r.torque.Z	femur_med_meniscii_r.meniscus_med_r.force.X	femur_med_meniscii_r.meniscus_med_r.force.Y	femur_med_meniscii_r.meniscus_med_r.force.Z	femur_med_meniscii_r.meniscus_med_r.torque.X	femur_med_meniscii_r.meniscus_med_r.torque.Y	femur_med_meniscii_r.meniscus_med_r.torque.Z	femur_med_tibia_r.tibia_upper_r.force.X	femur_med_tibia_r.tibia_upper_r.force.Y	femur_med_tibia_r.tibia_upper_r.force.Z	femur_med_tibia_r.tibia_upper_r.torque.X	femur_med_tibia_r.tibia_upper_r.torque.Y	femur_med_tibia_r.tibia_upper_r.torque.Z	femur_med_tibia_r.femur_med_r.force.X	femur_med_tibia_r.femur_med_r.force.Y	femur_med_tibia_r.femur_med_r.force.Z	femur_med_tibia_r.femur_med_r.torque.X	femur_med_tibia_r.femur_med_r.torque.Y	femur_med_tibia_r.femur_med_r.torque.Z	femur_lat_tibia_r.tibia_upper_r.force.X	femur_lat_tibia_r.tibia_upper_r.force.Y	femur_lat_tibia_r.tibia_upper_r.force.Z	femur_lat_tibia_r.tibia_upper_r.torque.X	femur_lat_tibia_r.tibia_upper_r.torque.Y	femur_lat_tibia_r.tibia_upper_r.torque.Z	femur_lat_tibia_r.femur_lat_r.force.X	femur_lat_tibia_r.femur_lat_r.force.Y	femur_lat_tibia_r.femur_lat_r.force.Z	femur_lat_tibia_r.femur_lat_r.torque.X	femur_lat_tibia_r.femur_lat_r.torque.Y	femur_lat_tibia_r.femur_lat_r.torque.Z	femur_lat_meniscii_force_r	femur_med_meniscii_force_r	femur_lat_tibia_force_r	femur_med_tibia_force_r
      0.16481607	      0.01291859	      0.01727787	     56.98589856	     -1.52417349	      0.00000000	    578.85612923	    374.42645197	      0.00000000	      0.00000000	      0.00000000	      0.00000000	      0.00000000	      0.00000000	      0.00000000	      0.00000000	      0.00000001	      0.00000000	      0.03132069	      0.02403762	      0.03495450	      0.03242767	      0.05952859	      0.05919191	      0.05628101	      0.05262409	      0.04789191	      0.04300082	      0.01525851	      0.01651186	      0.06550154	      0.04489616	      0.01016576	     -0.04074764	      0.12410878	      0.08498018	     -0.00830314	     -0.01006120	     -0.04166658	     -0.05990133	     -0.14962538	     -0.17847539	      0.00000079	     -0.32847694	      0.00000060	     -0.00000086	    111.33160273	    201.93158431	     25.23388058	    -15.05916620	      2.71020082	     43.49644989	   -111.33160273	   -201.93158431	    -25.23388058	      5.61358932	     -3.39754240	      3.67771282	     27.09554969	     23.79829754	     12.08600930	     -4.32845487	     -0.61070071	     10.86349686	    -27.09554969	    -23.79829754	    -12.08600930	     -0.30520222	      0.32091600	      0.09527916	   -745.10977821	   -681.65795921	    222.68167699	    -15.79202569	     16.90303591	     -1.06642784	    745.10977821	    681.65795921	   -222.68167699	    102.84971501	    -13.43424484	    302.98648491	      0.00000000	      0.00000000	      0.00000000	      0.00000000	      0.00000000	      0.00000000	      0.00000000	      0.00000000	      0.00000000	      0.00000000	      0.00000000	      0.00000000	    231.96516815	     38.03418725	      0.00000000	   1034.13407458
      0.16506894	      0.01293510	      0.01732625	     57.12193448	     -1.54879327	      0.00000000	    581.38845539	    375.63899651	      0.00000000	      0.00000000	      0.00000000	      0.00000000	      0.00000000	      0.00000000	      0.00000000	      0.00000000	      0.00000001	      0.00000000	      0.03131921	      0.02403730	      0.03496929	      0.03243624	      0.05954112	      0.05919429	      0.05627670	      0.05261574	      0.04787761	      0.04298308	      0.01525851	      0.01651186	      0.06550154	      0.04489616	      0.01011774	     -0.04076044	      0.12458450	      0.08526698	     -0.00809432	     -0.01002133	     -0.04173986	     -0.06005051	     -0.14987925	     -0.17881430	      0.00000079	     -0.32847694	      0.00000060	     -0.00000086	    113.22685671	    200.47111873	     24.96632605	    -14.90220840	      2.76020027	     44.28700514	   -113.22685671	   -200.47111873	    -24.96632605	      5.55745482	     -3.44637821	      3.60293796	     27.23861609	     23.74013610	     11.97008832	     -4.28268472	     -0.61331565	     10.91930115	    -27.23861609	    -23.74013610	    -11.97008832	     -0.30665778	      0.32506563	      0.09569136	   -747.46834392	   -681.86719748	    223.47553888	    -15.79197318	     16.96579678	     -1.01933865	    747.46834392	    681.86719748	   -223.47553888	    103.16720908	    -13.47600500	    303.91511758	      0.00000000	      0.00000000	      0.00000000	      0.00000000	      0.00000000	      0.00000000	      0.00000000	      0.00000000	      0.00000000	      0.00000000	      0.00000000	      0.00000000	    231.58650211	     38.06335879	      0.00000000	   1036.14338614
      0.16552564	      0.01296469	      0.01741376	     57.36766282	     -1.55253513	      0.00000000	    585.93093725	    377.80148926	      0.00000000	      0.00000000	      0.00000000	      0.00000000	      0.00000000	      0.00000000	      0.00000000	      0.00000000	      0.00000001	      0.00000000	      0.03131650	      0.02403673	      0.03499586	      0.03245165	      0.05956370	      0.05919862	      0.05626906	      0.05260043	      0.04785161	      0.04295093	      0.01525851	      0.01651186	      0.06550154	      0.04489616	      0.01003050	     -0.04078293	      0.12543880	      0.08578241	     -0.00771815	     -0.00994895	     -0.04186990	     -0.06032407	     -0.15034083	     -0.17942839	      0.00000079	     -0.32847694	      0.00000060	     -0.00000086	    116.39596907	    201.81409147	     25.95016660	    -15.34830189	      2.85223686	     45.57147254	   -116.39596907	   -201.81409147	    -25.95016660	      5.62471064	     -3.56630725	      3.59569900	     27.23851506	     23.27813374	     11.80392390	     -4.22604901	     -0.61197079	     10.91917395	    -27.23851506	    -23.27813374	    -11.80392390	     -0.30047557	      0.32601610	      0.09007183	   -752.21782781	   -680.83601074	    223.82902060	    -15.74234920	     17.05352013	     -0.99034731	    752.21782781	    680.83601074	   -223.82902060	    103.27166851	    -13.54877350	    305.80905207	      0.00000000	      0.00000000	      0.00000000	      0.00000000	      0.00000000	      0.00000000	      0.00000000	      0.00000000	      0.00000000	      0.00000000	      0.00000000	      0.00000000	    234.41493186	     37.72453886	      0.00000000	   1038.97486228
      0.16573447	      0.01297811	      0.01745383	     57.48003699	     -1.51980364	      0.00000000	    588.01460556	    378.83025551	      0.00000000	      0.00000000	      0.00000000	      0.00000000	      0.00000000	      0.00000000	      0.00000000	      0.00000000	      0.00000001	      0.00000000	      0.03131528	      0.02403651	      0.03500795	      0.03245867	      0.05957401	      0.05920062	      0.05626564	      0.05259333	      0.04783966	      0.04293620	      0.01525851	      0.01651186	      0.06550154	      0.04489616	      0.00999105	     -0.04079192	      0.12582759	      0.08601723	     -0.00754639	     -0.00991551	     -0.04192821	     -0.06045080	     -0.15055311	     -0.17970992	      0.00000079	     -0.32847694	      0.00000060	     -0.00000086	    116.49754061	    202.17551386	     26.00667143	    -15.37873918	      2.85412770	     45.60078253	   -116.49754061	   -202.17551386	    -26.00667143	      5.63352841	     -3.57080572	      3.62458016	     27.40614280	     23.22155483	     11.70337849	     -4.18672129	     -0.61505642	     10.98535722	    -27.40614280	    -23.22155483	    -11.70337849	     -0.30134625	      0.33041759	      0.08925477	   -754.57679145	   -679.50808394	    223.91677259	    -15.70581359	     17.09388353	     -1.00758629	    754.57679145	    679.50808394	   -223.91677259	    103.27579402	    -13.58414255	    306.76035077	      0.00000000	      0.00000000	      0.00000000	      0.00000000	      0.00000000	      0.00000000	      0.00000000	      0.00000000	      0.00000000	      0.00000000	      0.00000000	      0.00000000	    234.78279820	     37.77970805	      0.00000000	   1039.83464617
